<svg width="104" height="43" viewBox="0 0 104 43" fill="none" xmlns="http://www.w3.org/2000/svg">
<path d="M50.5489 0.255866C46.3007 0.659112 41.1423 1.57314 40.3953 2.05703C39.8585 2.43339 39.3683 3.3743 38.1312 6.41209C37.2676 8.56273 36.5673 10.3908 36.5673 10.4983C36.544 10.6327 36.9641 10.7134 37.4777 10.7134C38.2946 10.7134 38.4113 10.6327 38.528 9.96065C39.0649 7.0304 39.8118 5.65936 41.7258 4.18079C43.4998 2.83664 45.0636 2.16456 48.3315 1.38496C50.9224 0.739761 51.5993 0.685995 57.3179 0.685995C61.7528 0.659112 64.3671 0.793528 66.5145 1.11612C68.1951 1.35807 69.5722 1.51937 69.6189 1.4656C69.7823 1.27742 65.6275 0.524697 63.0366 0.228983C60.0722 -0.0936136 54.0968 -0.0667305 50.5489 0.255866Z" fill="#E5C100"/>
<path d="M51.7159 1.81512C51.039 1.94954 52.3695 2.05707 55.4505 2.08395C65.9076 2.1646 70.856 3.26681 72.8633 5.95511C73.7503 7.16485 73.867 7.99823 73.2134 8.6703C72.2798 9.66498 71.4628 9.71874 58.9518 9.77251C46.184 9.79939 44.9702 9.90692 40.2786 11.1435C36.5906 12.1113 32.4592 14.1007 30.8252 15.6868L30.125 16.3857L31.1287 15.6868C33.2761 14.1813 38.0144 12.4877 42.2626 11.6812C47.5144 10.6865 52.3695 10.3639 61.2859 10.3639C66.0943 10.3639 71.3928 10.4984 73.0734 10.6596C74.7306 10.8209 76.1311 10.9016 76.2012 10.8209C76.3879 10.6059 73.9137 5.22927 73.1434 4.18083C72.2798 3.02486 72.0464 2.94421 67.238 2.21837C64.1569 1.76136 53.4432 1.49253 51.7159 1.81512Z" fill="#E5C100"/>
<path d="M32.1088 8.1056C31.8053 8.29378 31.3852 8.77767 31.1751 9.18092C30.6149 10.3369 31.0584 10.8208 32.8324 11.009C33.6493 11.0896 34.6297 11.3316 34.9798 11.5197C35.5166 11.8155 35.68 11.8155 35.9601 11.4929C36.2402 11.1703 36.1935 11.1165 35.5166 11.0896C35.0965 11.0896 34.4429 10.8208 34.0928 10.4982C33.7427 10.1756 33.1591 9.90676 32.7857 9.90676C32.0621 9.90676 31.6886 9.47663 32.0621 9.0465C32.2021 8.88521 32.7623 8.69702 33.3459 8.64326C34.3496 8.50884 34.3729 8.50884 34.7464 9.5304C35.0965 10.5788 35.0965 10.5788 35.2599 9.87988C35.3532 9.47663 35.3766 8.85832 35.3299 8.53573C35.2599 7.9443 35.1198 7.89053 33.9761 7.80988C33.2758 7.783 32.4356 7.91742 32.1088 8.1056Z" fill="#E5C100"/>
<path d="M77.391 9.2349C77.391 10.6597 77.6011 10.7672 78.0913 9.5575C78.3947 8.80477 78.5347 8.69724 79.3284 8.72412C80.4021 8.77789 81.219 9.50373 80.6588 9.90698C80.4721 10.0683 80.122 10.122 79.9119 10.0683C79.7018 10.0145 79.165 10.2565 78.7682 10.6059C78.348 10.9554 77.6945 11.2511 77.321 11.2511C76.7374 11.2511 76.6908 11.3049 76.9242 11.6275C77.1576 11.977 77.2976 11.977 77.9279 11.6544C78.348 11.4393 79.2817 11.1974 80.0053 11.1167C81.9193 10.8748 82.2927 10.0414 81.1023 8.61659C80.7055 8.10581 80.3787 8.02516 79.0249 8.02516H77.391V9.2349Z" fill="#E5C100"/>
<path d="M54.7485 11.2512C50.9671 11.4932 48.633 11.8158 44.7583 12.6491C41.9573 13.2406 41.2571 13.6707 43.9413 13.1599C49.59 12.0846 61.004 11.4932 67.9364 11.9502C71.8111 12.1921 71.8578 12.1652 65.8824 12.9986C62.9413 13.4019 61.2841 13.9126 61.2841 14.4503C61.2841 14.5847 61.9376 15.0955 62.7546 15.5256C66.9561 17.8376 70.5273 17.7569 76.8762 15.1762C79.9573 13.9126 81.3578 13.8858 82.2681 14.988C82.6182 15.4181 83.0384 16.3052 83.2251 16.9504C83.4118 17.6494 83.5752 17.9182 83.6219 17.6494C83.8553 16.5203 81.4512 12.3265 80.5875 12.3265C80.3308 12.3265 79.5605 12.7567 78.8369 13.2675C78.09 13.7782 76.7128 14.4234 75.7558 14.746C73.4684 15.445 69.1268 15.7407 67.2595 15.2837C65.7423 14.9342 64.7853 14.5041 64.7853 14.2084C64.7853 13.6438 68.2865 12.8642 72.7214 12.4341C73.8185 12.3265 74.6121 12.219 74.472 12.1652C74.0752 12.0308 63.8983 11.2781 60.934 11.1437C59.3934 11.0899 56.6158 11.1437 54.7485 11.2512Z" fill="#E5C100"/>
<path d="M41.3985 13.59C41.5619 13.6706 41.7719 13.6437 41.842 13.5631C41.9353 13.4824 41.7953 13.4018 41.5385 13.4287C41.2818 13.4287 41.2117 13.5093 41.3985 13.59Z" fill="white"/>
<path d="M12.1978 27.3004C11.1474 29.236 9 33.5104 9 33.6717C9 33.7524 9.44349 33.833 10.0037 33.833H10.984L12.5713 30.3113C13.4349 28.4026 14.0885 26.709 14.0184 26.5746C13.6683 25.9294 12.7346 26.3326 12.1978 27.3004Z" fill="white"/>
<path d="M18.2203 26.5746C17.9869 27.0316 17.1699 31.0909 17.1699 31.8437C17.1699 32.4889 18.0802 33.833 18.5237 33.833C18.7571 33.833 20.2277 26.8434 20.0643 26.5208C19.9009 26.1982 18.3837 26.252 18.2203 26.5746Z" fill="white"/>
<path d="M22.4456 26.7627C22.3756 27.0315 22.2356 27.7305 22.0955 28.3219C21.4186 31.521 21.3486 31.6823 20.695 32.0856C20.2982 32.3006 19.9714 32.7576 19.9014 33.1878C19.7847 33.8867 19.808 33.8867 20.8351 33.7523C22.5623 33.5373 23.3326 32.435 23.9395 29.3704C24.2196 27.9725 24.383 26.7358 24.2896 26.5745C24.0329 26.0906 22.5857 26.2519 22.4456 26.7627Z" fill="white"/>
<path d="M25.3382 27.0047C24.9181 28.2413 25.0348 28.4564 26.0385 28.4564C26.692 28.4564 26.9721 28.5639 26.9721 28.8328C26.9721 29.2091 26.3886 32.3813 26.1318 33.3491C26.0151 33.7524 26.1552 33.833 27.0422 33.833H28.0925L28.8161 30.3113C29.2129 28.3757 29.5397 26.6821 29.5397 26.5477C29.5397 26.4133 28.6527 26.3057 27.5557 26.3057C25.6183 26.3057 25.5483 26.3326 25.3382 27.0047Z" fill="white"/>
<path d="M30.5224 27.1662C30.2889 28.1608 30.359 28.4565 30.8258 28.4565C31.2226 28.4565 31.316 28.2952 31.526 27.1662C31.6661 26.4134 31.6194 26.3059 31.1993 26.3059C30.8491 26.3059 30.6624 26.5478 30.5224 27.1662Z" fill="white"/>
<path d="M35.4921 26.6283C35.1887 27.6499 35.282 28.0531 35.7722 28.1338C37.0327 28.3489 36.5658 31.1985 35.142 32.005C34.6518 32.3007 34.255 32.7577 34.1616 33.1609C34.0216 33.7792 34.0683 33.833 34.8385 33.833C36.6825 33.833 38.2231 32.1663 38.5498 29.8812C38.7599 28.2951 38.5032 27.4348 37.6395 26.8434C36.7992 26.252 35.6555 26.1445 35.4921 26.6283Z" fill="white"/>
<path d="M40.2774 26.8971C40.0907 27.381 38.877 33.3491 38.877 33.7254C38.877 33.7792 39.2971 33.833 39.7873 33.833H40.6976L41.1644 31.6017L41.6313 29.3973L41.6546 31.6017L41.6779 33.833H42.5649C43.4285 33.833 43.4752 33.7792 44.2455 31.9511C45.1091 29.908 45.3426 29.7199 44.9924 31.306C44.3856 34.048 44.3622 33.833 45.5059 33.833H46.533L47.0465 31.1984C47.3266 29.7736 47.6534 28.1875 47.7467 27.6767C47.8634 27.166 47.9101 26.6821 47.8634 26.5476C47.7934 26.4401 47.1865 26.3595 46.4863 26.3595L45.2025 26.3864L44.3155 28.537L43.4285 30.6876L43.3118 28.5639L43.1951 26.4401L41.8647 26.3595C40.6509 26.2788 40.4875 26.3326 40.2774 26.8971Z" fill="white"/>
<path d="M50.8039 26.6821C50.4537 27.2198 47.2793 33.5104 47.2793 33.6717C47.2793 33.7524 47.7228 33.833 48.283 33.833H49.2633L50.8505 30.2576C51.7142 28.322 52.4378 26.6283 52.4378 26.5477C52.4144 26.2789 51.0139 26.3864 50.8039 26.6821Z" fill="white"/>
<path d="M55.9164 27.0047C55.4962 28.2413 55.6129 28.4564 56.6166 28.4564C57.2702 28.4564 57.5503 28.5639 57.5503 28.8328C57.5503 29.2091 56.9667 32.3813 56.71 33.3491C56.5933 33.7524 56.7333 33.833 57.6203 33.833H58.6707L59.3942 30.3113C59.791 28.3757 60.1178 26.6821 60.1178 26.5477C60.1178 26.4133 59.2308 26.3057 58.1338 26.3057C56.1964 26.3057 56.1264 26.3326 55.9164 27.0047Z" fill="white"/>
<path d="M61.0975 27.1658C60.9808 27.6497 60.9341 28.1336 60.9808 28.2412C61.1909 28.6982 61.7744 28.4293 61.9845 27.7573C62.3346 26.7357 62.2646 26.3056 61.751 26.3056C61.4476 26.3056 61.2375 26.5744 61.0975 27.1658Z" fill="white"/>
<path d="M63.4795 26.5207C63.3395 26.6283 62.896 28.2681 62.5225 30.2037L61.8223 33.6985L62.7559 33.7792C63.2461 33.8329 63.7129 33.806 63.783 33.7254C63.923 33.5641 65.2535 27.1659 65.2535 26.6283C65.2535 26.2788 63.923 26.1712 63.4795 26.5207Z" fill="white"/>
<path d="M69.6182 26.8702C69.3848 27.8918 69.4315 28.1069 69.9217 28.2682C70.2018 28.3488 70.3885 28.6445 70.3885 28.994C70.3885 29.5048 70.5052 29.5585 71.3922 29.4779C72.2558 29.3972 72.3725 29.3166 72.4426 28.6983C72.5359 27.7036 71.6489 26.6014 70.5986 26.4132C69.8516 26.2788 69.7349 26.3326 69.6182 26.8702Z" fill="white"/>
<path d="M80.0754 26.709C80.0054 26.9241 79.912 27.3004 79.842 27.5424C79.7719 27.8112 79.8886 28.0263 80.1921 28.1069C80.4488 28.1876 80.7289 28.5371 80.799 28.8865C80.9157 29.4242 81.0791 29.5317 81.8493 29.5317C82.6896 29.5317 82.7596 29.478 82.7596 28.7521C82.7596 27.5962 82.5496 27.1391 81.8026 26.709C80.9624 26.1982 80.2154 26.1982 80.0754 26.709Z" fill="white"/>
<path d="M86.4468 26.4939C86.1433 26.5746 82.5254 33.2147 82.5254 33.6986C82.5254 33.7792 82.9689 33.833 83.5291 33.833H84.5094L86.0966 30.2576C86.9603 28.322 87.6839 26.6552 87.6839 26.5746C87.6605 26.3864 86.9836 26.3595 86.4468 26.4939Z" fill="white"/>
<path d="M91.931 26.5208C91.7909 26.6283 91.3941 28.1069 91.044 29.8005C90.7172 31.4942 90.3904 33.1072 90.3204 33.3491C90.227 33.7524 90.3438 33.833 91.114 33.833H92.0243L92.6779 30.392C93.028 28.5102 93.3315 26.8434 93.3548 26.709C93.3781 26.3864 92.3044 26.2251 91.931 26.5208Z" fill="white"/>
<path d="M94.5938 26.5208C94.5238 26.6283 94.4304 27.0316 94.3371 27.4348C94.2203 28.0531 94.267 28.1876 94.6172 28.1876C94.8506 28.1876 95.1307 28.2682 95.2007 28.3489C95.4574 28.6446 94.8973 29.5317 94.4538 29.5317C93.7068 29.5317 93.5201 30.9296 93.9869 32.8115C94.2203 33.833 94.2437 33.833 95.4108 33.833C96.3211 33.833 96.5545 33.7524 96.4611 33.4566C96.3911 33.2416 96.2044 32.5964 96.041 32.005C95.7842 30.9565 95.7842 30.9028 96.5078 30.1769C98.0017 28.5908 97.5815 26.709 95.6675 26.467C95.1073 26.3864 94.6405 26.4133 94.5938 26.5208Z" fill="white"/>
<path d="M99.7998 26.7894C99.3097 27.0583 98.8195 27.6497 98.5627 28.268C98.1426 29.2089 98.1426 29.3165 98.4927 29.9348C98.7495 30.3649 99.3097 30.7413 100.173 31.037L101.457 31.4671L101.294 32.65C101.13 33.9672 101.27 34.0748 102.344 33.4296C102.974 33.0532 103.768 31.6015 103.768 30.8219C103.768 30.1767 102.951 29.5046 101.737 29.1552L100.617 28.8057L100.687 27.5691C100.734 26.8701 100.734 26.3055 100.687 26.3055C100.64 26.3055 100.243 26.5206 99.7998 26.7894Z" fill="white"/>
<path d="M101.829 27.0315C101.643 28.1337 102.11 28.7251 103.113 28.7251C103.883 28.7251 104 28.6444 104 28.1068C104 27.3541 103.79 27.0046 103.137 26.6013C102.343 26.1174 101.969 26.2519 101.829 27.0315Z" fill="white"/>
<path d="M33.3929 27.0854C31.9691 28.0801 31.0587 30.9028 31.6656 32.3545C32.0157 33.161 32.6927 33.7793 32.9261 33.5104C33.0194 33.4298 33.3462 32.0319 33.6497 30.4189C33.9764 28.8328 34.2799 27.3005 34.3499 27.0316C34.5133 26.4402 34.2799 26.4402 33.3929 27.0854Z" fill="white"/>
<path d="M67.518 27.0585C66.6544 27.6768 65.7207 29.8812 65.7207 31.3329C65.7207 32.2469 65.8608 32.677 66.3276 33.2147C66.6544 33.591 67.0045 33.8061 67.1212 33.6717C67.2612 33.4566 68.5217 27.3542 68.5217 26.7627C68.5217 26.467 68.2416 26.5477 67.518 27.0585Z" fill="white"/>
<path d="M78.1843 26.8433C77.134 27.3272 75.9902 29.8273 75.9902 31.6285C75.9902 32.193 77.274 34.0479 77.5074 33.806C77.5541 33.7253 77.8576 32.3005 78.2077 30.6069C78.5345 28.9133 78.8612 27.3003 78.9313 27.0315C79.0713 26.5207 78.9313 26.4938 78.1843 26.8433Z" fill="white"/>
<path d="M14.2974 28.8865C13.9473 29.693 13.6672 30.5264 13.6672 30.7415C13.6672 30.9565 13.5739 31.1447 13.4338 31.1447C13.3171 31.1447 13.0603 31.4942 12.8503 31.9512C12.5001 32.7577 12.5001 32.7577 13.0837 32.7577C13.5038 32.7577 13.6672 32.8921 13.6672 33.2953C13.6672 33.7524 13.8306 33.833 14.7876 33.833H15.908L15.5345 30.7683C15.3478 29.0747 15.1377 27.623 15.0444 27.5424C14.9744 27.4617 14.6476 28.0531 14.2974 28.8865Z" fill="white"/>
<path d="M52.5087 29.0478C52.1352 29.9618 51.8551 30.7952 51.9018 30.9296C51.9251 31.0372 51.8551 31.1447 51.7151 31.1447C51.5984 31.1447 51.3416 31.4942 51.1315 31.9512C50.7814 32.7577 50.7814 32.7577 51.3649 32.7577C51.7851 32.7577 51.9485 32.8921 51.9485 33.2953C51.9485 33.7524 52.1119 33.833 53.0689 33.833H54.1893L53.8158 30.7683C53.6291 29.0747 53.3956 27.623 53.3256 27.5424C53.2556 27.4617 52.8821 28.1338 52.5087 29.0478Z" fill="white"/>
<path d="M87.7548 29.0478C87.3813 29.9618 87.1012 30.7952 87.1479 30.9296C87.1712 31.0372 87.1012 31.1447 86.9612 31.1447C86.8444 31.1447 86.5877 31.4942 86.3776 31.9512C86.0275 32.7577 86.0275 32.7577 86.611 32.7577C87.0312 32.7577 87.1946 32.8921 87.1946 33.2953C87.1946 33.7524 87.358 33.833 88.315 33.833H89.4354L89.0619 30.7683C88.8752 29.0747 88.6417 27.623 88.5717 27.5424C88.5017 27.4617 88.1282 28.1338 87.7548 29.0478Z" fill="white"/>
<path d="M69.9201 31.4135C69.7801 31.7092 69.4066 32.0318 69.1032 32.1125C68.7764 32.1931 68.5196 32.3544 68.5196 32.462C68.5196 32.5426 68.4496 32.8921 68.3796 33.2147C68.2395 33.7792 68.3096 33.833 69.0098 33.833C70.0135 33.833 71.2039 32.9996 71.6707 31.9781C72.1609 30.8759 72.1376 30.8759 71.0872 30.8759C70.4103 30.8759 70.1068 31.0103 69.9201 31.4135Z" fill="white"/>
<path d="M80.2389 31.4133C80.0755 31.7359 79.7021 32.0853 79.3986 32.2198C79.0718 32.3542 78.8151 32.7305 78.7217 33.1607C78.605 33.8865 78.6284 33.8865 79.6554 33.7521C80.7524 33.6177 81.6394 32.8918 82.1996 31.6014L82.5497 30.8756H81.546C80.7758 30.8756 80.4723 31.01 80.2389 31.4133Z" fill="white"/>
<path d="M97.6973 32.1932C97.6973 33.6986 99.8213 34.5589 100.125 33.161C100.335 32.2201 99.5646 31.4136 98.5142 31.4136C97.7673 31.4136 97.6973 31.4673 97.6973 32.1932Z" fill="white"/>
<path d="M40.442 39.9625C39.9285 40.6345 39.9519 41.9787 40.4654 42.5163C41.0489 43.1347 42.216 43.0809 42.7295 42.4357C43.2663 41.7636 43.0096 41.441 42.286 41.8711C41.4224 42.4088 40.8622 42.1669 40.8622 41.226C40.8622 40.285 41.4224 40.0431 42.286 40.5808C43.0096 41.0109 43.2663 40.6883 42.7295 40.0162C42.1926 39.3441 40.9555 39.3173 40.442 39.9625Z" fill="#E5C100"/>
<path d="M44.9227 40.2041C44.0824 42.6505 44.0124 42.9731 44.3625 42.9731C44.5492 42.9731 44.7593 42.8387 44.8293 42.7043C45.0161 42.3279 45.7863 42.3548 46.3465 42.758C47.0468 43.2688 47.0935 42.9193 46.4866 41.1988C45.8564 39.3977 45.3195 39.0482 44.9227 40.2041ZM45.8797 41.4139C45.8797 41.5483 45.7163 41.6289 45.5296 41.6289C45.1328 41.6289 45.1094 41.5752 45.3195 40.9569C45.4362 40.6074 45.5062 40.5805 45.6696 40.8762C45.7863 41.0644 45.8797 41.3063 45.8797 41.4139Z" fill="#E5C100"/>
<path d="M48.2148 41.2257C48.2148 42.6505 48.2849 42.9731 48.5883 42.9731C48.8451 42.9731 48.9384 42.8118 48.8451 42.4355C48.775 42.086 48.8451 41.8978 49.0318 41.8978C49.2185 41.8978 49.4286 42.1398 49.4986 42.4355C49.592 42.7312 49.8488 42.9731 50.1055 42.9731C50.5023 42.9731 50.5257 42.8925 50.2922 42.4086C50.1055 42.0054 50.1055 41.7634 50.2922 41.5483C50.6424 41.1451 50.619 40.2042 50.2689 39.8009C50.1055 39.6128 49.592 39.4783 49.1018 39.4783H48.2148V41.2257ZM49.8488 40.6881C49.8488 40.93 49.6387 41.0913 49.2652 41.0913C48.8917 41.0913 48.6817 40.93 48.6817 40.6881C48.6817 40.4461 48.8917 40.2848 49.2652 40.2848C49.6387 40.2848 49.8488 40.4461 49.8488 40.6881Z" fill="#E5C100"/>
<path d="M53.584 41.2254C53.584 42.5965 53.654 42.9728 53.9341 42.9728C54.1208 42.9728 54.2842 42.7309 54.2842 42.4352C54.2842 42.1394 54.3543 41.8975 54.471 41.8975C54.5643 41.8975 54.7744 42.1394 54.9378 42.4352C55.3113 43.161 56.0348 43.1879 55.7081 42.462C55.5447 42.1394 55.5447 41.7093 55.7314 41.1448C56.1049 40.0426 55.6847 39.478 54.4943 39.478H53.584V41.2254ZM55.2179 40.6878C55.2179 40.9297 55.0078 41.091 54.6344 41.091C54.2142 41.091 54.0975 40.9835 54.1909 40.6878C54.2842 40.4727 54.541 40.2845 54.7744 40.2845C55.0078 40.2845 55.2179 40.4727 55.2179 40.6878Z" fill="#E5C100"/>
<path d="M57.084 41.2257V42.9731H58.1344C58.9046 42.9731 59.1847 42.8656 59.1847 42.5699C59.1847 42.3011 58.9513 42.1667 58.4845 42.1667C58.111 42.1667 57.7842 42.0322 57.7842 41.8978C57.7842 41.7365 58.041 41.629 58.3678 41.629C58.7412 41.629 58.9513 41.4677 58.9513 41.2257C58.9513 40.9838 58.7179 40.8225 58.3444 40.8225C57.7142 40.8225 57.6442 40.1773 58.2744 40.1235C59.0447 40.0698 59.1847 39.9891 59.1847 39.7472C59.1847 39.5859 58.7179 39.4783 58.1344 39.4783H57.084V41.2257Z" fill="#E5C100"/>
<path d="M60.3516 41.2257C60.3516 42.5968 60.4216 42.9731 60.7017 42.9731C60.9584 42.9731 61.0518 42.6774 61.0518 41.9516L61.0751 40.9569L61.7754 41.9516C62.8258 43.457 63.1059 43.2957 63.1292 41.2257C63.1292 39.8547 63.0592 39.4783 62.8024 39.4783C62.5457 39.4783 62.4523 39.7741 62.4523 40.473L62.429 41.4946L61.682 40.473C60.585 39.0213 60.3516 39.1557 60.3516 41.2257Z" fill="#E5C100"/>
<path d="M64.0859 39.8816C64.0859 40.0967 64.296 40.2848 64.5528 40.2848C64.9496 40.2848 65.0196 40.473 65.0196 41.629C65.0196 42.6505 65.113 42.9731 65.3697 42.9731C65.6265 42.9731 65.7198 42.6505 65.7198 41.6559C65.7198 40.4999 65.7899 40.3117 66.2334 40.2311C66.5135 40.1773 66.7702 39.9891 66.8402 39.8009C66.9103 39.559 66.5368 39.4783 65.5098 39.4783C64.3894 39.4783 64.0859 39.559 64.0859 39.8816Z" fill="#E5C100"/>
<path d="M68.2399 41.2257C67.6563 42.8925 67.6563 42.9731 68.0765 42.9731C68.3099 42.9731 68.52 42.8387 68.52 42.7043C68.52 42.543 68.8468 42.4355 69.2202 42.4355C69.617 42.4355 69.9205 42.543 69.9205 42.7043C69.9205 42.8387 70.0839 42.9731 70.2939 42.9731C70.5507 42.9731 70.6207 42.8118 70.4807 42.3548C70.0605 40.8225 69.4303 39.4783 69.1502 39.4783C68.9868 39.4783 68.5667 40.258 68.2399 41.2257ZM69.4536 41.2257C69.4536 41.4408 69.2902 41.629 69.1035 41.629C68.8934 41.629 68.8234 41.4677 68.8934 41.2257C68.9868 41.0107 69.1269 40.8225 69.2436 40.8225C69.3603 40.8225 69.4536 41.0107 69.4536 41.2257Z" fill="#E5C100"/>
<path d="M71.7871 41.2526V43L72.7908 42.9194C73.8412 42.8387 74.0512 42.3548 73.0709 42.2204C72.534 42.1397 72.4874 42.0322 72.4874 40.7956C72.4874 39.8009 72.394 39.4783 72.1372 39.4783C71.8571 39.4783 71.7871 39.8547 71.7871 41.2526Z" fill="#E5C100"/>
<path d="M22.7715 41.2257C22.7715 41.5751 23.6818 41.6289 29.6572 41.6289C35.6327 41.6289 36.543 41.5751 36.543 41.2257C36.543 40.8762 35.6327 40.8224 29.6572 40.8224C23.6818 40.8224 22.7715 40.8762 22.7715 41.2257Z" fill="#E5C100"/>
<path d="M77.1562 41.2257C77.1562 41.5751 78.0666 41.6289 84.042 41.6289C90.0174 41.6289 90.9277 41.5751 90.9277 41.2257C90.9277 40.8762 90.0174 40.8224 84.042 40.8224C78.0666 40.8224 77.1562 40.8762 77.1562 41.2257Z" fill="#E5C100"/>
</svg>
